<?xml version="1.0" standalone="no"?>
<!DOCTYPE svg PUBLIC "-//W3C//DTD SVG 20010904//EN"
 "http://www.w3.org/TR/2001/REC-SVG-20010904/DTD/svg10.dtd">
<svg version="1.0" xmlns="http://www.w3.org/2000/svg"
 width="1080.000000pt" height="1080.000000pt" viewBox="0 0 1080.000000 1080.000000"
 preserveAspectRatio="xMidYMid meet">
<metadata>
Created by potrace 1.14, written by Peter Selinger 2001-2017
</metadata>
<g transform="translate(0.000000,1080.000000) scale(0.100000,-0.100000)"
fill="#000000" stroke="none">
<path d="M2835 8071 c-65 -17 -161 -69 -187 -102 -15 -19 -38 -47 -51 -62 -17
-19 -29 -49 -37 -95 -6 -37 -15 -87 -20 -112 -5 -25 -16 -85 -25 -135 -29
-163 -84 -409 -105 -475 -5 -14 -23 -72 -40 -130 -18 -58 -54 -164 -81 -237
-31 -82 -49 -148 -49 -175 0 -39 -19 -103 -55 -183 -56 -126 -71 -159 -96
-225 -16 -41 -34 -84 -39 -95 -5 -11 -21 -58 -36 -104 -25 -77 -35 -93 -77
-128 -10 -8 -13 -25 -10 -55 3 -34 -2 -54 -26 -98 -50 -91 -141 -282 -141
-296 0 -3 -14 -35 -30 -71 -17 -35 -30 -66 -30 -69 0 -5 -49 -72 -74 -100 -17
-20 -55 -115 -56 -141 0 -19 -50 -121 -85 -178 -48 -76 -63 -88 -102 -82 l-33
6 15 -29 c8 -16 15 -34 15 -40 0 -51 -296 -545 -366 -611 -24 -22 -32 -24
-112 -20 -48 3 -139 5 -202 5 -106 1 -119 -1 -171 -26 -39 -20 -72 -28 -107
-28 -62 0 -79 -18 -21 -22 l42 -3 -80 -78 c-78 -76 -80 -79 -92 -145 -8 -46
-8 -78 -2 -100 8 -25 6 -50 -7 -98 -15 -56 -15 -65 -2 -78 20 -19 163 -66 203
-66 47 0 59 -12 51 -46 -18 -79 -90 -178 -170 -234 -11 -8 -35 -42 -53 -75
-27 -49 -80 -125 -101 -145 -3 -3 -25 -29 -49 -59 -53 -64 -59 -93 -49 -214
13 -141 63 -224 168 -274 25 -12 62 -17 130 -17 112 0 162 18 234 85 42 38
135 172 137 195 0 9 37 63 122 178 27 36 56 87 65 113 10 26 31 68 48 93 17
25 55 88 84 140 33 59 72 113 103 142 28 25 55 61 61 80 10 30 18 35 90 60
101 34 181 42 281 29 155 -21 177 -23 170 -12 -3 6 -19 11 -34 11 -15 0 -35 6
-45 13 -15 11 -5 15 81 31 54 9 133 24 177 33 96 18 191 10 222 -19 21 -19 22
-19 28 7 5 19 20 32 59 49 124 55 192 70 316 71 l105 0 28 -46 c29 -45 29 -47
17 -114 -11 -62 -10 -70 6 -81 10 -7 23 -15 29 -17 7 -2 4 -21 -7 -56 -9 -29
-14 -57 -11 -62 3 -5 25 -9 50 -9 33 0 46 -4 51 -17 4 -10 35 -64 70 -121 35
-56 63 -109 63 -118 0 -31 20 -51 67 -69 26 -10 75 -35 108 -56 77 -48 142
-69 210 -69 30 0 78 -6 108 -14 46 -12 63 -12 118 0 35 7 83 13 106 14 37 0
51 7 100 51 109 96 128 117 154 165 26 48 26 52 19 169 -4 66 -13 133 -19 148
-6 16 -11 39 -11 52 0 36 -66 49 -104 20 -15 -11 -50 -15 -142 -15 -119 0
-122 1 -138 25 -12 18 -26 25 -49 25 -17 0 -39 6 -48 13 -21 16 -159 300 -159
327 0 31 35 85 71 111 26 18 29 26 29 72 0 78 -30 130 -111 189 l-69 50 0 84
c0 45 -5 95 -10 110 -18 47 -24 196 -10 240 17 47 18 69 24 304 3 102 9 223
15 270 6 47 18 155 26 240 9 85 20 194 25 241 6 47 10 102 10 123 0 20 8 51
17 69 13 25 16 54 15 128 l-3 97 41 35 41 35 -21 44 c-12 23 -31 52 -42 64
-17 20 -19 39 -20 265 -1 179 2 258 12 296 14 52 13 53 -13 81 -27 28 -27 30
-27 169 0 100 4 153 15 183 15 41 14 45 -10 88 -28 50 -32 113 -10 152 22 39
18 58 -24 98 -34 32 -40 44 -46 97 -10 92 -18 110 -48 113 -29 4 -30 4 -31 77
l-1 50 -54 5 c-51 5 -56 7 -77 45 -12 22 -33 48 -45 57 -28 21 -101 30 -144
19z m-75 -1740 c0 -6 -4 -13 -10 -16 -5 -3 -10 1 -10 9 0 9 5 16 10 16 6 0 10
-4 10 -9z m-12 -73 c20 -20 15 -357 -8 -528 -10 -80 -21 -154 -24 -165 -6 -23
-30 -200 -45 -325 -19 -156 -31 -313 -36 -475 -8 -261 -27 -549 -37 -568 -7
-15 -17 -16 -57 -11 -41 5 -54 2 -87 -19 -31 -20 -57 -26 -129 -31 -49 -3
-124 -10 -165 -16 -41 -5 -120 -9 -176 -10 -59 0 -121 -6 -150 -15 -27 -8 -55
-15 -62 -15 -28 0 -22 34 21 123 25 50 64 131 86 180 25 53 54 99 75 117 26
23 38 46 52 98 19 73 155 347 184 373 12 11 17 24 13 38 -3 11 -1 27 5 34 5 6
22 44 37 82 37 95 153 334 204 420 32 54 41 80 41 115 0 81 41 185 83 213 18
12 31 39 52 114 15 54 39 132 52 173 38 113 46 123 71 98z"/>
<path d="M2388 4953 c6 -2 18 -2 25 0 6 3 1 5 -13 5 -14 0 -19 -2 -12 -5z"/>
<path d="M7230 8023 c-26 -5 -212 -50 -310 -76 -30 -8 -82 -17 -114 -21 -32
-4 -93 -18 -135 -31 -55 -19 -87 -24 -117 -19 -30 4 -53 1 -79 -12 -20 -9 -51
-18 -69 -18 -17 -1 -65 -18 -106 -38 -48 -23 -109 -42 -170 -53 -198 -35 -281
-57 -352 -92 -26 -12 -65 -23 -88 -23 -48 0 -99 -12 -250 -57 -63 -19 -145
-38 -181 -43 -36 -5 -100 -20 -143 -34 -70 -24 -79 -25 -110 -12 -32 13 -36
12 -96 -21 -58 -33 -70 -36 -149 -37 -47 -1 -95 -7 -106 -13 -32 -19 -175 -63
-204 -63 -14 0 -46 7 -70 16 l-45 15 -35 -40 c-38 -43 -56 -49 -226 -71 -33
-4 -81 -14 -106 -21 -43 -11 -51 -11 -99 10 l-52 23 -42 -30 c-23 -17 -67 -42
-98 -57 -31 -14 -66 -37 -79 -51 -12 -13 -30 -24 -38 -24 -14 0 -16 -20 -19
-129 -4 -146 5 -189 54 -267 38 -60 85 -101 146 -125 61 -25 101 -23 144 6 22
15 51 25 73 25 20 1 56 5 81 10 38 7 48 6 66 -11 27 -25 35 -24 69 11 39 41
85 60 169 72 95 12 157 31 219 67 32 18 75 31 112 36 33 4 98 16 145 26 73 17
205 44 330 67 22 5 39 15 46 30 16 33 15 33 106 42 45 5 103 14 128 20 25 6
64 13 87 17 55 7 67 -14 58 -103 -6 -52 -4 -68 8 -82 35 -39 64 -127 72 -217
5 -70 11 -95 27 -112 19 -20 20 -28 11 -74 -10 -47 -9 -55 13 -87 14 -20 24
-50 25 -71 0 -20 5 -90 11 -156 17 -206 10 -411 -15 -430 -13 -9 -14 -14 -4
-24 14 -14 11 -195 -4 -223 -5 -10 -7 -22 -4 -27 3 -5 -2 -16 -10 -24 -8 -9
-15 -18 -15 -22 0 -3 -14 -24 -31 -45 -18 -22 -29 -45 -25 -52 4 -7 13 -24 21
-37 16 -29 11 -47 -17 -54 -16 -5 -19 -10 -12 -24 12 -25 13 -215 1 -230 -5
-7 -9 -28 -9 -47 0 -21 -6 -37 -14 -40 -10 -4 -12 -14 -8 -31 4 -17 1 -32 -10
-44 -11 -12 -13 -21 -7 -25 6 -4 6 -17 0 -39 -34 -112 -71 -261 -89 -352 -11
-58 -81 -234 -105 -265 -7 -8 -20 -35 -29 -59 -9 -24 -30 -63 -46 -86 -16 -24
-39 -67 -50 -96 -34 -87 -60 -119 -96 -119 -18 0 -42 8 -55 19 -23 18 -23 20
-10 85 7 37 12 69 9 71 -2 2 -21 -21 -43 -51 -22 -30 -47 -54 -57 -54 -35 0
-127 107 -113 130 3 5 -18 33 -47 62 -29 29 -60 69 -69 88 -8 19 -27 60 -42
90 -15 30 -27 71 -27 91 0 27 -6 40 -29 56 -15 12 -31 34 -35 50 -26 107 -22
91 -75 278 -11 39 -23 102 -26 142 -7 71 -7 71 21 86 18 9 75 16 152 20 101 5
128 3 155 -10 17 -9 44 -22 59 -30 14 -7 37 -13 50 -13 25 -1 82 -29 147 -73
40 -27 42 -27 89 -13 26 7 67 18 92 24 87 20 103 30 96 57 -4 15 -1 27 7 32 7
4 31 33 53 63 28 39 41 67 42 94 1 22 9 47 18 57 14 16 14 18 -1 27 -10 5 -19
22 -21 38 -3 27 -13 39 -81 90 -31 22 -194 94 -215 94 -7 0 -33 7 -58 15 -25
8 -83 26 -130 41 -66 21 -94 37 -131 70 -37 35 -53 44 -83 44 -22 0 -36 5 -36
13 0 7 16 45 35 86 34 70 44 111 27 111 -12 0 -45 -25 -190 -141 -131 -106
-134 -108 -197 -114 -36 -4 -71 -5 -78 -2 -22 8 -109 -12 -130 -31 -29 -25
-120 -168 -152 -237 -29 -64 -42 -103 -70 -205 -9 -36 -21 -78 -26 -94 -5 -16
-9 -42 -9 -57 0 -18 -8 -34 -20 -41 -24 -15 -26 -28 -5 -28 26 0 54 -79 70
-200 28 -213 69 -414 96 -462 5 -10 9 -42 9 -71 0 -43 5 -59 28 -87 41 -51 66
-97 86 -160 10 -30 28 -71 40 -90 31 -47 39 -76 40 -135 l1 -50 48 -6 c44 -5
54 -11 132 -93 47 -48 85 -92 85 -97 0 -12 79 -56 172 -95 45 -18 97 -49 116
-66 l33 -33 172 0 172 0 16 26 c22 34 104 87 230 149 195 95 190 91 235 169
23 40 50 81 60 92 21 23 32 42 82 140 21 42 59 96 84 122 44 44 45 46 42 103
-3 55 17 124 36 124 5 0 6 9 3 19 -3 11 13 58 37 108 45 93 48 102 79 256 13
63 31 118 51 152 30 52 33 77 15 118 -10 24 0 46 26 56 18 6 19 9 6 14 -22 8
-10 46 19 59 27 13 32 38 7 38 -9 0 -13 3 -9 7 14 14 169 13 224 -1 30 -8 60
-12 68 -9 19 7 29 -24 13 -43 -10 -12 -25 -14 -75 -9 -78 9 -98 -11 -21 -20
77 -10 81 -14 58 -61 -18 -36 -41 -94 -124 -309 -27 -70 -30 -92 -29 -172 1
-51 -2 -93 -6 -93 -4 0 -8 -28 -8 -62 -1 -35 -2 -82 -3 -106 -1 -25 7 -62 19
-90 12 -26 24 -66 27 -90 3 -23 10 -45 14 -48 5 -3 9 -21 9 -40 0 -52 104
-191 184 -247 14 -10 35 -36 46 -58 11 -21 25 -39 31 -39 28 0 -17 -31 -53
-36 -21 -4 -41 -11 -44 -15 -14 -24 57 -21 187 7 16 4 30 0 38 -10 11 -13 9
-17 -15 -26 -43 -17 -17 -30 67 -34 71 -3 129 -20 129 -38 0 -4 -17 -8 -37 -9
-21 0 -47 -4 -58 -9 -21 -9 -9 -11 125 -17 30 -1 84 -6 120 -11 227 -33 307
-43 400 -52 58 -6 126 -15 152 -20 44 -9 53 -7 131 30 70 34 95 40 148 40 79
0 250 31 394 71 60 16 169 39 270 55 49 8 99 21 110 28 11 7 54 21 95 31 41
10 105 31 142 47 37 15 76 28 87 28 46 0 181 51 416 156 28 12 82 34 120 49
39 14 93 35 120 46 59 24 195 38 195 20 0 -17 18 -13 25 7 3 9 29 32 58 51 28
19 68 45 88 58 19 13 46 23 60 23 14 0 36 10 48 21 25 24 146 78 173 79 10 0
39 11 65 24 27 13 62 28 78 33 21 6 33 18 40 38 22 64 59 116 87 122 30 6 41
43 12 43 -11 0 -13 6 -9 19 4 14 -1 23 -18 33 -39 21 -138 116 -128 123 5 3
47 6 93 7 46 1 92 5 103 9 19 7 19 8 -2 8 -54 2 2 41 58 41 52 0 28 25 -27 27
-27 2 -77 6 -111 9 -65 7 -83 -4 -41 -23 19 -8 10 -12 -55 -21 -101 -15 -110
-15 -151 5 -33 15 -38 15 -83 -2 -26 -10 -59 -26 -73 -35 -14 -9 -51 -22 -83
-29 -32 -7 -91 -30 -130 -50 -48 -25 -103 -44 -162 -55 -61 -12 -110 -29 -154
-53 -35 -19 -111 -49 -170 -65 -172 -47 -469 -147 -576 -192 -53 -23 -215 -56
-274 -56 -25 0 -59 -7 -74 -15 -34 -17 -90 -35 -237 -73 -51 -14 -82 -17 -98
-11 -42 16 -119 10 -155 -11 -60 -35 -137 -49 -308 -53 -219 -7 -308 4 -452
52 -164 55 -204 77 -217 117 -6 17 -8 44 -4 58 5 22 1 29 -30 47 -20 12 -40
29 -45 38 -33 61 -16 316 27 419 22 53 33 67 62 79 31 14 32 16 15 25 -28 15
-28 15 -20 28 4 7 9 29 10 49 4 53 33 117 61 136 13 8 24 22 24 29 0 25 51
105 71 111 13 4 18 12 15 21 -7 18 36 37 77 35 15 -1 27 4 27 10 0 6 -9 9 -20
6 -11 -3 -22 -2 -25 2 -7 13 32 105 46 109 33 11 40 24 20 39 -26 18 -17 39
22 53 18 7 26 14 20 17 -20 8 -16 20 35 95 26 39 52 78 57 87 6 8 18 22 28 29
9 7 17 19 17 26 0 8 6 16 14 19 7 3 23 25 35 49 13 23 35 55 49 70 15 15 36
37 47 49 40 42 65 53 135 53 38 1 72 5 76 9 4 4 -20 7 -54 7 -57 0 -87 14 -65
29 5 3 20 32 33 64 17 43 33 65 61 84 21 14 59 58 88 103 28 43 71 100 95 126
24 27 46 63 50 80 13 58 56 111 123 150 57 33 65 41 75 81 9 36 26 58 96 123
75 70 91 80 123 80 40 0 48 7 82 68 22 39 138 145 187 170 14 7 45 31 70 53
65 58 121 103 153 122 24 16 28 16 33 2 10 -24 -59 -99 -171 -185 -142 -110
-202 -165 -253 -235 l-44 -60 7 -70 c16 -175 103 -291 242 -324 46 -11 62 -10
137 9 l85 21 38 -25 c20 -14 38 -24 40 -22 2 1 -5 24 -14 50 l-18 48 50 41
c86 71 182 167 212 210 15 23 55 69 88 102 34 33 87 93 118 132 35 44 68 75
83 79 17 4 23 11 19 22 -3 8 10 56 29 106 19 50 47 125 62 166 15 41 40 99 57
128 29 53 29 53 25 190 -6 171 -27 231 -88 256 -21 8 -74 39 -118 69 -81 56
-163 87 -224 87 -18 -1 -58 -9 -88 -20 -34 -12 -82 -19 -125 -20 -62 0 -76 -4
-125 -34 -63 -40 -192 -111 -330 -183 -147 -77 -235 -137 -249 -169 -7 -17
-34 -42 -66 -62 -30 -18 -133 -108 -229 -201 -103 -100 -195 -180 -226 -197
-42 -23 -56 -38 -68 -69 -16 -43 -51 -89 -131 -175 -29 -30 -63 -74 -77 -97
-14 -23 -36 -49 -50 -58 -14 -9 -30 -28 -37 -43 -6 -15 -14 -29 -17 -32 -3 -3
-14 -20 -24 -39 -11 -19 -27 -44 -37 -55 -9 -12 -58 -70 -109 -131 -103 -124
-206 -273 -255 -373 -41 -83 -130 -172 -172 -172 -45 0 -59 -14 -33 -33 l23
-16 -37 -55 c-20 -31 -44 -56 -52 -56 -7 0 -14 -8 -14 -19 0 -10 -7 -24 -15
-31 -8 -7 -15 -22 -15 -34 0 -12 -9 -27 -20 -34 -11 -6 -17 -18 -14 -26 6 -16
-37 -106 -60 -125 -9 -8 -16 -20 -16 -27 0 -8 -11 -19 -25 -24 -15 -6 -23 -15
-19 -24 3 -8 1 -17 -5 -21 -6 -3 -20 -26 -32 -51 -11 -25 -26 -48 -34 -51 -8
-3 -15 -13 -15 -23 0 -15 -7 -17 -45 -12 -30 3 -45 1 -45 -7 0 -6 16 -11 35
-11 45 0 46 -21 4 -61 -23 -22 -41 -29 -70 -29 -21 0 -39 -4 -39 -10 0 -9 8
-11 52 -14 22 -1 23 -5 16 -34 -5 -19 -10 -21 -30 -13 -12 5 -47 12 -75 16
-36 4 -53 12 -53 21 0 9 -11 14 -30 15 -16 1 -33 2 -37 3 -5 1 -26 6 -48 10
-36 6 -41 10 -40 34 0 24 4 27 35 30 93 7 112 32 25 32 -56 0 -69 12 -43 38 8
8 8 15 0 24 -12 16 -9 115 5 144 6 10 15 29 22 42 6 13 9 27 6 33 -12 18 19
108 47 139 52 58 61 102 33 156 -20 38 -19 50 4 73 18 18 18 19 -6 30 -25 11
-25 14 -19 84 8 87 9 295 3 517 -4 150 -2 169 16 207 l20 42 -28 37 c-35 46
-54 97 -55 146 0 21 -4 57 -10 80 -5 24 -17 79 -26 123 -9 44 -23 105 -30 135
-20 79 -18 113 9 138 13 12 28 22 33 22 5 0 75 25 154 56 194 74 251 92 340
109 66 13 82 13 130 0 77 -21 91 -19 126 14 29 28 36 29 122 30 50 0 108 5
129 10 21 6 55 13 76 16 30 5 46 16 80 60 23 29 93 95 155 145 61 50 112 97
112 103 0 7 -10 32 -21 57 -64 141 -159 191 -363 189 -67 -1 -132 -4 -146 -6z"/>
<path d="M0 5951 c0 -187 0 -189 23 -195 33 -9 118 -7 152 3 38 10 236 -4 324
-25 120 -27 120 -27 127 -10 3 9 12 16 20 16 17 0 18 -17 2 -23 -7 -3 10 -6
38 -6 34 -1 56 -6 65 -17 9 -12 22 -14 48 -8 42 8 113 6 193 -5 38 -5 66 -4
85 4 l28 12 -30 7 c-16 3 -64 8 -105 10 -98 6 -170 24 -310 79 -83 32 -136 47
-192 52 -66 6 -79 11 -93 31 -8 13 -15 30 -15 39 0 8 -7 15 -15 15 -8 0 -15
-4 -15 -10 0 -24 -31 -7 -36 20 -7 31 -24 42 -24 15 0 -27 -28 -16 -49 20 -14
24 -19 44 -14 65 7 39 -11 39 -34 0 -20 -35 -58 -43 -48 -10 5 15 0 22 -18 29
-13 5 -35 22 -48 38 -13 16 -32 32 -42 36 -16 6 -17 -8 -17 -182z m50 -147 c0
-8 -4 -12 -10 -9 -5 3 -10 10 -10 16 0 5 5 9 10 9 6 0 10 -7 10 -16z"/>
<path d="M14 5705 c-19 -14 -19 -14 2 -15 11 0 29 7 40 15 19 14 19 14 -2 15
-11 0 -29 -7 -40 -15z"/>
<path d="M1165 5700 c-3 -5 1 -10 9 -10 9 0 16 5 16 10 0 6 -4 10 -9 10 -6 0
-13 -4 -16 -10z"/>
<path d="M6570 5699 c0 -4 20 -9 45 -13 25 -3 65 -9 90 -12 29 -4 50 -2 59 5
9 8 27 10 48 5 34 -7 75 -7 138 0 19 1 41 4 49 5 8 0 11 4 7 9 -9 8 -436 10
-436 1z"/>
<path d="M8009 5701 c18 -12 288 -16 914 -12 369 1 527 -1 522 -8 -4 -7 4 -11
19 -11 14 0 28 5 31 10 3 6 22 10 41 10 19 0 33 4 30 9 -4 5 -333 9 -789 10
-451 1 -776 -3 -768 -8z"/>
<path d="M9695 5700 c-26 -5 -2 -7 72 -7 62 0 118 4 125 9 16 9 -140 8 -197
-2z"/>
<path d="M9958 5698 c9 -9 15 -9 24 0 9 9 7 12 -12 12 -19 0 -21 -3 -12 -12z"/>
<path d="M10058 5703 c6 -2 18 -2 25 0 6 3 1 5 -13 5 -14 0 -19 -2 -12 -5z"/>
<path d="M10245 5700 c-4 -6 22 -10 69 -10 44 0 76 4 76 10 0 6 -30 10 -69 10
-39 0 -73 -4 -76 -10z"/>
<path d="M10480 5700 c0 -5 12 -10 26 -10 14 0 23 4 19 10 -3 6 -15 10 -26 10
-10 0 -19 -4 -19 -10z"/>
<path d="M10620 5700 c0 -5 11 -10 25 -10 14 0 25 5 25 10 0 6 -11 10 -25 10
-14 0 -25 -4 -25 -10z"/>
<path d="M6475 5693 c11 -3 25 -12 31 -21 10 -14 13 -13 23 6 11 21 10 22 -31
21 -24 -1 -34 -4 -23 -6z"/>
<path d="M130 5680 c-11 -7 3 -10 45 -9 43 0 54 3 40 9 -27 12 -67 12 -85 0z"/>
<path d="M9570 5670 c0 -5 11 -10 24 -10 14 0 28 5 31 10 4 6 -7 10 -24 10
-17 0 -31 -4 -31 -10z"/>
<path d="M10268 5593 c7 -3 16 -2 19 1 4 3 -2 6 -13 5 -11 0 -14 -3 -6 -6z"/>
<path d="M10665 5590 c-3 -5 3 -10 15 -10 12 0 18 5 15 10 -3 6 -10 10 -15 10
-5 0 -12 -4 -15 -10z"/>
<path d="M6476 5514 c-22 -21 -20 -27 4 -12 11 7 20 16 20 20 0 12 -7 10 -24
-8z"/>
<path d="M10538 5523 c7 -3 16 -2 19 1 4 3 -2 6 -13 5 -11 0 -14 -3 -6 -6z"/>
<path d="M10598 5523 c7 -3 16 -2 19 1 4 3 -2 6 -13 5 -11 0 -14 -3 -6 -6z"/>
<path d="M6565 5480 c-3 -6 1 -13 10 -16 19 -8 30 0 20 15 -8 14 -22 14 -30 1z"/>
<path d="M6715 5460 c-3 -5 3 -10 14 -10 11 0 23 5 26 10 3 6 -3 10 -14 10
-11 0 -23 -4 -26 -10z"/>
<path d="M8708 5463 c6 -2 18 -2 25 0 6 3 1 5 -13 5 -14 0 -19 -2 -12 -5z"/>
<path d="M9147 5464 c-8 -8 1 -24 14 -24 5 0 9 7 9 15 0 15 -12 20 -23 9z"/>
<path d="M8530 5450 c0 -5 4 -10 9 -10 6 0 13 5 16 10 3 6 -1 10 -9 10 -9 0
-16 -4 -16 -10z"/>
<path d="M7845 5400 c3 -5 10 -10 16 -10 5 0 9 5 9 10 0 6 -7 10 -16 10 -8 0
-12 -4 -9 -10z"/>
<path d="M9395 5400 c-3 -5 -1 -10 4 -10 6 0 11 5 11 10 0 6 -2 10 -4 10 -3 0
-8 -4 -11 -10z"/>
<path d="M9765 5380 c3 -5 12 -7 20 -3 21 7 19 13 -6 13 -11 0 -18 -4 -14 -10z"/>
<path d="M9210 5371 c0 -5 16 -11 35 -13 24 -3 35 0 35 9 0 8 -13 13 -35 13
-19 0 -35 -4 -35 -9z"/>
<path d="M8100 5264 c0 -11 5 -14 16 -10 9 3 20 6 25 6 5 0 9 5 9 10 0 6 -11
10 -25 10 -16 0 -25 -6 -25 -16z"/>
<path d="M9058 5265 c-3 -3 -30 -8 -59 -10 -73 -6 -109 -15 -109 -26 0 -13
132 -11 186 2 40 10 43 13 27 25 -19 14 -36 17 -45 9z"/>
<path d="M7950 5230 c-11 -7 -4 -10 25 -9 31 0 36 2 20 9 -26 11 -28 11 -45 0z"/>
<path d="M7610 5210 c0 -6 7 -13 15 -16 23 -9 18 -22 -10 -26 -44 -5 -32 -23
18 -26 28 -2 47 1 47 7 0 6 -7 11 -16 11 -8 0 -12 4 -9 10 9 14 -13 50 -30 50
-8 0 -15 -5 -15 -10z"/>
<path d="M7995 5201 c-9 -16 16 -22 50 -12 17 5 23 10 15 10 -8 1 -25 4 -36 7
-12 3 -25 1 -29 -5z"/>
<path d="M9365 5183 c-44 -9 -49 -13 -36 -26 13 -13 140 -11 155 3 5 5 -9 12
-30 15 -22 4 -46 8 -54 10 -8 1 -24 1 -35 -2z"/>
<path d="M6639 5159 c-11 -6 -11 -11 -1 -21 10 -10 15 -9 28 4 13 13 13 16 1
21 -7 3 -20 1 -28 -4z"/>
<path d="M10317 5143 c-15 -7 -32 -11 -37 -8 -16 10 -50 -5 -50 -21 0 -13 12
-14 68 -9 120 10 135 14 121 31 -6 8 -14 13 -16 10 -3 -2 -17 -1 -32 4 -18 5
-36 3 -54 -7z"/>
<path d="M9214 5141 c8 -13 83 -24 98 -15 9 6 5 10 -12 15 -37 10 -92 10 -86
0z"/>
<path d="M9925 5120 c-11 -5 -33 -9 -49 -9 -16 -1 -27 -4 -23 -7 10 -10 118 6
112 17 -7 11 -13 11 -40 -1z"/>
<path d="M8058 5083 c6 -2 18 -2 25 0 6 3 1 5 -13 5 -14 0 -19 -2 -12 -5z"/>
<path d="M8743 5060 c-33 -13 -28 -24 7 -17 21 5 32 2 38 -9 16 -29 172 -43
172 -15 0 18 -51 34 -93 28 -31 -4 -50 -2 -63 8 -22 17 -30 17 -61 5z"/>
<path d="M9025 5060 c3 -5 10 -10 16 -10 5 0 9 5 9 10 0 6 -7 10 -16 10 -8 0
-12 -4 -9 -10z"/>
<path d="M9805 5061 c-3 -5 -1 -12 5 -16 14 -9 52 4 45 16 -8 12 -42 12 -50 0z"/>
<path d="M7540 5051 c0 -17 33 -22 107 -15 107 10 100 24 -11 24 -53 0 -96 -4
-96 -9z"/>
<path d="M7763 5053 c9 -2 25 -2 35 0 9 3 1 5 -18 5 -19 0 -27 -2 -17 -5z"/>
<path d="M7944 5045 c-11 -8 -41 -15 -71 -15 -28 0 -55 -5 -58 -10 -4 -6 -30
-11 -58 -11 -78 1 -177 -10 -177 -20 0 -10 34 -20 65 -20 11 1 56 1 101 1 73
0 82 2 102 25 17 19 32 25 69 27 56 2 92 4 113 7 23 3 -18 31 -45 31 -12 0
-30 -7 -41 -15z"/>
<path d="M10493 5053 c9 -2 23 -2 30 0 6 3 -1 5 -18 5 -16 0 -22 -2 -12 -5z"/>
<path d="M10568 5053 c6 -2 18 -2 25 0 6 3 1 5 -13 5 -14 0 -19 -2 -12 -5z"/>
<path d="M8060 5040 c-12 -8 -9 -10 13 -10 41 0 32 -19 -13 -26 -66 -11 -67
-29 -2 -31 66 -3 102 3 102 17 0 6 -12 10 -27 10 l-28 1 24 13 24 14 -24 7
c-13 3 -31 8 -39 11 -8 2 -22 -1 -30 -6z"/>
<path d="M6491 5011 c13 -10 30 -16 39 -12 11 4 9 7 -7 9 -13 2 -23 8 -23 13
0 5 -7 9 -16 9 -12 0 -11 -4 7 -19z"/>
<path d="M8445 5016 l-30 -13 38 -6 c49 -8 72 0 56 19 -14 17 -25 17 -64 0z"/>
<path d="M7500 5010 c0 -5 7 -10 16 -10 8 0 12 5 9 10 -3 6 -10 10 -16 10 -5
0 -9 -4 -9 -10z"/>
<path d="M9685 5009 c-4 -6 1 -17 11 -24 18 -14 18 -14 -3 -15 -13 0 -23 -5
-23 -10 0 -11 67 -4 108 11 31 12 29 33 -3 25 -16 -4 -34 -1 -48 9 -25 18 -34
19 -42 4z"/>
<path d="M10390 5010 c-23 -15 5 -30 58 -30 45 0 55 -19 16 -30 -33 -9 -22
-40 21 -61 31 -14 52 -17 92 -13 43 5 54 3 59 -10 4 -9 18 -16 34 -16 36 0 61
-10 55 -20 -7 -11 35 -40 57 -40 13 0 18 8 18 26 0 17 -4 23 -12 18 -10 -6
-10 -4 0 7 18 20 15 66 -5 74 -10 4 -49 8 -86 10 -38 2 -76 10 -84 17 -13 10
-17 10 -20 1 -7 -19 -19 -16 -48 13 -19 19 -23 29 -15 39 8 9 2 14 -27 19 -55
9 -96 7 -113 -4z"/>
<path d="M9315 4993 c-55 -8 -51 -23 6 -23 61 0 99 8 99 21 0 9 -49 10 -105 2z"/>
<path d="M9500 4990 l-25 -7 27 -8 c32 -8 62 0 53 15 -7 11 -19 11 -55 0z"/>
<path d="M9570 4990 c0 -12 47 -12 75 0 15 6 8 9 -27 9 -27 1 -48 -3 -48 -9z"/>
<path d="M9891 4971 c-21 -16 -22 -20 -10 -39 8 -12 19 -22 26 -22 6 0 18 -9
26 -21 14 -19 28 -21 153 -26 93 -3 144 -9 154 -18 8 -7 46 -15 83 -17 45 -3
71 -9 78 -19 5 -8 9 -9 9 -3 0 16 51 27 63 15 15 -15 67 -14 67 2 0 18 -108
57 -158 57 -23 0 -42 5 -42 10 0 6 -29 10 -67 10 -38 1 -88 5 -113 11 -25 6
-56 12 -69 13 -14 2 -28 12 -32 23 -5 13 -23 24 -53 32 -62 15 -87 14 -115 -8z"/>
<path d="M7500 4976 c0 -9 30 -14 35 -6 4 6 -3 10 -14 10 -12 0 -21 -2 -21 -4z"/>
<path d="M8618 4973 c6 -2 18 -2 25 0 6 3 1 5 -13 5 -14 0 -19 -2 -12 -5z"/>
<path d="M10267 4960 c-5 -21 8 -26 32 -11 7 5 10 14 7 20 -11 18 -33 13 -39
-9z"/>
<path d="M8780 4960 c0 -5 6 -10 14 -10 8 0 18 5 21 10 3 6 -3 10 -14 10 -12
0 -21 -4 -21 -10z"/>
<path d="M6420 4950 c0 -5 5 -10 10 -10 6 0 10 5 10 10 0 6 -4 10 -10 10 -5 0
-10 -4 -10 -10z"/>
<path d="M8190 4949 c-14 -4 -58 -7 -97 -8 -42 -1 -73 -5 -73 -11 0 -6 29 -10
68 -10 37 0 106 -7 153 -16 84 -15 86 -15 123 7 20 12 35 26 34 31 -4 12 -173
18 -208 7z"/>
<path d="M9000 4943 c0 -6 10 -13 23 -17 36 -10 137 -7 137 4 0 6 -8 10 -19
10 -10 0 -46 3 -80 6 -39 5 -61 3 -61 -3z"/>
<path d="M9363 4941 c-75 -13 -59 -21 40 -21 95 0 127 11 66 24 -35 7 -46 6
-106 -3z"/>
<path d="M10375 4930 c-3 -5 1 -10 9 -10 8 0 18 5 21 10 3 6 -1 10 -9 10 -8 0
-18 -4 -21 -10z"/>
<path d="M9568 4913 c6 -2 18 -2 25 0 6 3 1 5 -13 5 -14 0 -19 -2 -12 -5z"/>
<path d="M9767 4905 c-18 -9 -46 -12 -80 -10 -36 3 -44 2 -27 -4 20 -6 10 -9
-45 -14 -38 -3 -81 -7 -95 -10 -14 -2 -29 -5 -33 -6 -5 0 -5 -6 -2 -12 4 -6
22 -9 40 -7 19 1 37 -1 41 -5 12 -12 44 -8 44 5 0 9 3 9 12 0 7 -7 28 -12 48
-12 24 0 31 3 21 9 -22 14 -2 34 30 27 15 -3 31 -1 34 5 4 5 24 9 46 7 43 -2
54 4 46 27 -8 19 -44 19 -80 0z"/>
<path d="M9343 4878 c-9 -10 0 -13 48 -12 32 0 62 3 65 7 4 4 -8 7 -27 7 -19
0 -43 3 -55 6 -11 3 -25 -1 -31 -8z"/>
<path d="M8111 4857 c-14 -18 76 -47 148 -47 45 0 52 3 49 18 -2 9 -12 16 -22
15 -10 0 -37 5 -59 13 -50 18 -101 18 -116 1z"/>
<path d="M8463 4863 c-7 -2 -13 -9 -13 -14 0 -13 31 -10 60 6 l25 14 -30 0
c-16 0 -36 -3 -42 -6z"/>
<path d="M8938 4863 c7 -3 16 -2 19 1 4 3 -2 6 -13 5 -11 0 -14 -3 -6 -6z"/>
<path d="M9005 4841 c-7 -12 31 -25 46 -15 8 4 7 9 -2 15 -18 11 -36 11 -44 0z"/>
<path d="M9210 4840 c0 -5 21 -10 48 -9 38 1 42 2 22 9 -36 12 -70 12 -70 0z"/>
<path d="M7758 4821 c-16 -10 -25 -21 -21 -24 9 -9 186 -7 243 2 55 9 37 18
-55 25 -38 3 -86 8 -105 10 -24 4 -44 0 -62 -13z"/>
<path d="M8600 4831 c25 -15 80 -23 80 -13 0 9 -47 22 -79 22 -14 -1 -14 -2
-1 -9z"/>
<path d="M9748 4833 c6 -2 18 -2 25 0 6 3 1 5 -13 5 -14 0 -19 -2 -12 -5z"/>
<path d="M10000 4830 c0 -13 40 -13 60 0 11 7 5 10 -22 10 -21 0 -38 -4 -38
-10z"/>
<path d="M10100 4821 c0 -13 20 -18 55 -15 17 1 37 3 45 3 13 1 13 2 0 11 -19
12 -100 13 -100 1z"/>
<path d="M9002 4793 c3 -16 -6 -18 -74 -18 -48 0 -82 -5 -89 -12 -7 -7 -9 -13
-3 -14 5 0 59 -4 119 -9 61 -4 139 -15 175 -24 36 -9 104 -21 153 -25 54 -5
94 -14 105 -24 20 -17 66 -24 212 -31 58 -3 128 -8 155 -12 48 -7 49 -7 20
-15 -16 -5 -88 -11 -159 -13 -113 -5 -126 -3 -110 9 17 13 15 14 -28 15 -27 0
-48 -4 -48 -10 0 -5 5 -10 10 -10 6 0 10 -4 10 -10 0 -12 -79 -12 -135 -1 -36
8 -37 9 -10 10 17 1 37 6 45 11 17 11 23 10 -95 12 -142 1 -165 -1 -165 -17 0
-9 -10 -15 -26 -15 -14 0 -35 -5 -47 -12 -21 -11 -21 -11 -2 -19 25 -10 89
-11 98 -2 4 3 2 12 -4 20 -9 10 -8 13 1 13 7 0 21 -11 32 -25 11 -14 25 -22
31 -18 7 4 4 9 -9 14 -22 8 99 2 204 -12 40 -5 93 -9 117 -9 24 0 47 -4 50
-10 3 -5 17 -10 31 -10 14 0 22 4 19 10 -10 16 65 12 82 -5 12 -13 38 -15 134
-13 71 2 119 7 119 13 1 6 -10 12 -22 13 -33 5 -46 21 -28 32 8 5 114 10 234
10 190 0 222 -2 238 -16 16 -15 27 -16 106 -5 49 7 100 9 114 6 29 -7 45 7 25
23 -6 6 -25 12 -42 14 -23 2 -31 9 -33 26 -3 21 -8 23 -36 18 -41 -8 -109 22
-97 43 6 9 19 12 36 9 15 -3 42 -2 60 3 22 6 49 6 77 -1 23 -6 77 -17 118 -25
41 -7 87 -16 103 -20 24 -6 27 -4 27 18 0 21 -6 25 -41 31 -22 4 -46 4 -52 0
-7 -3 -2 3 11 13 13 10 20 22 16 26 -11 11 -62 8 -66 -3 -4 -14 -157 8 -178
25 -26 21 -64 22 -83 2 -18 -18 -18 -19 3 -24 11 -3 19 -11 17 -17 -8 -24
-282 -3 -312 24 -13 12 -27 15 -40 10 -27 -10 -138 0 -147 13 -4 7 -12 6 -23
-3 -15 -12 -8 -16 57 -37 40 -13 80 -23 88 -23 8 0 34 -8 58 -17 40 -15 42
-18 23 -25 -13 -4 -47 -1 -84 8 -34 8 -107 19 -162 24 -55 6 -158 17 -230 26
-158 19 -239 22 -242 9 -1 -5 15 -15 35 -21 l37 -10 -38 -8 c-21 -4 -53 -3
-70 2 -18 6 -86 18 -151 28 -102 15 -126 22 -168 51 -58 38 -60 39 -56 16z
m1356 -125 c31 -13 56 -28 55 -33 -2 -6 -27 -10 -55 -10 -49 0 -53 2 -50 23 3
18 -2 22 -22 22 -34 0 -57 10 -50 22 8 13 49 5 122 -24z m-468 -28 c20 -6 17
-8 -20 -8 -25 0 -58 4 -75 8 -26 7 -23 8 20 8 28 0 61 -4 75 -8z m369 -4 c-2
-2 -21 -6 -42 -10 -27 -5 -37 -4 -32 3 3 6 22 11 42 11 20 0 34 -2 32 -4z
m-116 -23 c-7 -2 -21 -2 -30 0 -10 3 -4 5 12 5 17 0 24 -2 18 -5z m-883 -13
c12 -8 11 -10 -7 -10 -13 0 -23 5 -23 10 0 13 11 13 30 0z"/>
<path d="M9350 4800 c0 -13 11 -13 30 0 12 8 11 10 -7 10 -13 0 -23 -4 -23
-10z"/>
<path d="M10260 4790 c-11 -7 -4 -10 25 -10 29 0 36 3 25 10 -8 5 -19 10 -25
10 -5 0 -17 -5 -25 -10z"/>
<path d="M9548 4773 c7 -3 16 -2 19 1 4 3 -2 6 -13 5 -11 0 -14 -3 -6 -6z"/>
<path d="M6335 4760 c-16 -7 -12 -9 18 -9 23 -1 36 3 32 9 -7 12 -23 12 -50 0z"/>
<path d="M8190 4750 c-13 -8 -12 -10 3 -10 9 0 17 5 17 10 0 12 -1 12 -20 0z"/>
<path d="M10758 4753 c7 -3 16 -2 19 1 4 3 -2 6 -13 5 -11 0 -14 -3 -6 -6z"/>
<path d="M8210 4710 c-11 -7 -5 -10 23 -10 20 0 37 5 37 10 0 13 -40 13 -60 0z"/>
<path d="M8348 4703 c12 -2 30 -2 40 0 9 3 -1 5 -23 4 -22 0 -30 -2 -17 -4z"/>
<path d="M7870 4680 c0 -5 17 -10 38 -10 27 0 33 3 22 10 -20 13 -60 13 -60 0z"/>
<path d="M7520 4652 c0 -17 52 -32 128 -39 53 -4 73 -3 68 5 -10 17 -196 49
-196 34z"/>
<path d="M8668 4635 c-3 -3 -25 -9 -49 -14 l-44 -9 51 -1 c63 -1 116 8 108 20
-6 10 -57 12 -66 4z"/>
<path d="M10665 4629 c-11 -17 0 -21 69 -26 44 -4 66 -2 66 5 0 14 -31 23 -72
20 -19 -1 -39 1 -45 5 -6 4 -15 2 -18 -4z"/>
<path d="M8452 4608 c5 -15 52 -23 76 -13 15 6 15 8 -3 15 -32 14 -77 12 -73
-2z"/>
<path d="M8088 4563 c6 -2 18 -2 25 0 6 3 1 5 -13 5 -14 0 -19 -2 -12 -5z"/>
<path d="M10620 4560 c0 -5 7 -10 15 -10 8 0 15 5 15 10 0 6 -7 10 -15 10 -8
0 -15 -4 -15 -10z"/>
<path d="M8700 4540 c27 -15 140 -16 140 -1 0 6 -35 10 -77 10 -48 0 -72 -4
-63 -9z"/>
<path d="M8910 4540 c0 -5 21 -10 46 -10 27 0 43 4 39 10 -3 6 -24 10 -46 10
-21 0 -39 -4 -39 -10z"/>
<path d="M10518 4533 c7 -3 16 -2 19 1 4 3 -2 6 -13 5 -11 0 -14 -3 -6 -6z"/>
<path d="M10695 4520 c-4 -6 12 -10 42 -9 36 0 43 3 28 9 -28 12 -63 12 -70 0z"/>
<path d="M10225 4470 c3 -5 8 -10 11 -10 2 0 4 5 4 10 0 6 -5 10 -11 10 -5 0
-7 -4 -4 -10z"/>
<path d="M9090 4451 c-5 -11 -33 -25 -67 -34 l-58 -15 45 -1 c25 -1 132 4 238
11 215 13 238 26 70 40 -218 18 -217 18 -228 -1z"/>
<path d="M10053 4453 c9 -2 25 -2 35 0 9 3 1 5 -18 5 -19 0 -27 -2 -17 -5z"/>
<path d="M9690 4414 c-24 -14 -23 -14 20 -8 69 10 94 23 45 23 -22 0 -51 -6
-65 -15z"/>
<path d="M9040 4340 c20 -13 77 -13 85 0 4 6 -14 10 -47 10 -38 0 -49 -3 -38
-10z"/>
<path d="M10770 4281 c0 -5 7 -11 15 -15 9 -3 15 0 15 9 0 8 -7 15 -15 15 -8
0 -15 -4 -15 -9z"/>
<path d="M27 3983 c18 -2 48 -2 66 0 17 2 3 4 -33 4 -36 0 -50 -2 -33 -4z"/>
<path d="M6073 3933 c9 -2 23 -2 30 0 6 3 -1 5 -18 5 -16 0 -22 -2 -12 -5z"/>
<path d="M1804 3418 c-3 -4 13 -8 35 -8 23 0 41 2 41 4 0 8 -71 12 -76 4z"/>
<path d="M6550 3260 c-11 -7 -7 -10 18 -10 17 0 32 5 32 10 0 13 -30 13 -50 0z"/>
<path d="M9227 3209 c12 -12 25 -20 28 -17 3 3 -7 13 -22 23 l-28 17 22 -23z"/>
<path d="M9180 3130 c0 -5 7 -10 15 -10 8 0 15 5 15 10 0 6 -7 10 -15 10 -8 0
-15 -4 -15 -10z"/>
<path d="M8160 3120 c-12 -8 -9 -10 13 -10 16 0 26 4 22 10 -8 12 -16 12 -35
0z"/>
<path d="M7934 3096 c-18 -14 -18 -15 -2 -21 20 -8 115 12 124 26 9 15 -100
10 -122 -5z"/>
<path d="M7738 3043 c-55 -6 -46 -23 11 -23 54 0 81 7 81 21 0 9 -20 9 -92 2z"/>
<path d="M5285 3020 c-3 -5 -1 -10 4 -10 6 0 11 5 11 10 0 6 -2 10 -4 10 -3 0
-8 -4 -11 -10z"/>
<path d="M9170 3020 c-8 -5 -37 -12 -63 -15 -63 -8 -57 -29 10 -33 48 -3 52
-1 66 28 16 31 13 35 -13 20z"/>
<path d="M7313 3003 c-7 -2 -13 -9 -13 -14 0 -13 31 -10 60 6 l25 14 -30 0
c-16 0 -36 -3 -42 -6z"/>
<path d="M7628 3003 c7 -3 16 -2 19 1 4 3 -2 6 -13 5 -11 0 -14 -3 -6 -6z"/>
<path d="M8808 3003 c7 -3 16 -2 19 1 4 3 -2 6 -13 5 -11 0 -14 -3 -6 -6z"/>
<path d="M8368 2993 c7 -3 16 -2 19 1 4 3 -2 6 -13 5 -11 0 -14 -3 -6 -6z"/>
<path d="M6991 2965 c-18 -8 -46 -15 -62 -15 -15 0 -31 -5 -34 -10 -8 -13 159
-4 186 10 53 29 -27 42 -90 15z"/>
<path d="M7623 2966 c-49 -18 -46 -22 14 -16 32 3 58 10 61 18 5 15 -30 14
-75 -2z"/>
<path d="M6730 2950 c0 -5 7 -10 15 -10 8 0 15 5 15 10 0 6 -7 10 -15 10 -8 0
-15 -4 -15 -10z"/>
<path d="M4488 2923 c7 -3 16 -2 19 1 4 3 -2 6 -13 5 -11 0 -14 -3 -6 -6z"/>
<path d="M6215 2922 c-5 -4 -16 -17 -23 -29 -11 -21 -10 -23 15 -23 40 0 173
32 173 42 0 12 -44 10 -57 -3 -9 -9 -21 -8 -46 5 -39 18 -47 19 -62 8z"/>
<path d="M5990 2904 c-41 -8 -102 -15 -134 -17 -34 -1 -61 -7 -63 -14 -3 -8
18 -10 74 -7 43 3 110 6 148 7 64 3 115 20 115 39 0 12 -55 8 -140 -8z"/>
<path d="M4550 2900 c0 -5 10 -10 23 -10 18 0 19 2 7 10 -19 13 -30 13 -30 0z"/>
<path d="M7732 2903 c-6 -2 -10 -9 -6 -14 7 -12 64 -12 64 1 0 6 -4 10 -9 10
-5 0 -15 2 -23 4 -7 3 -19 2 -26 -1z"/>
<path d="M4920 2852 c0 -33 150 -60 338 -61 46 -1 91 -5 100 -9 9 -5 31 -9 49
-10 18 -1 44 -7 58 -12 15 -6 38 -10 53 -10 l27 1 -30 24 c-16 14 -41 25 -55
25 -14 0 -36 7 -49 16 -16 12 -49 17 -105 19 -96 3 -260 13 -333 21 -31 3 -53
1 -53 -4z"/>
<path d="M10400 2621 c-22 -6 -23 -8 -7 -14 31 -12 69 -8 65 6 -6 15 -25 18
-58 8z"/>
<path d="M10740 2600 c8 -5 26 -10 39 -10 32 0 24 6 -19 14 -25 4 -31 3 -20
-4z"/>
<path d="M9320 2555 c-11 -13 -7 -15 23 -15 22 0 37 6 41 15 4 11 -2 15 -23
15 -16 0 -34 -7 -41 -15z"/>
<path d="M9103 2523 c-13 -2 -23 -9 -23 -14 0 -5 10 -7 23 -5 12 3 30 5 40 5
10 1 15 6 12 11 -6 10 -13 11 -52 3z"/>
<path d="M9918 2516 c-10 -7 -18 -18 -18 -25 0 -16 30 -14 36 4 10 24 0 35
-18 21z"/>
<path d="M9440 2482 c0 -19 40 -44 57 -38 16 7 15 9 -7 26 -26 21 -50 26 -50
12z"/>
<path d="M10290 2407 c0 -36 97 -88 137 -73 20 8 11 32 -11 28 -9 -2 -16 1
-16 6 0 9 -81 52 -99 52 -6 0 -11 -6 -11 -13z"/>
<path d="M9810 2360 c20 -13 40 -13 40 0 0 6 -12 10 -27 10 -22 0 -25 -2 -13
-10z"/>
<path d="M10002 2304 c-26 -18 -20 -38 9 -29 13 4 32 -2 54 -19 21 -17 46 -26
67 -25 27 0 29 2 13 8 -19 8 -19 8 3 15 32 10 28 21 -18 45 -48 25 -97 27
-128 5z"/>
<path d="M7235 2290 c11 -5 27 -9 35 -9 13 -1 13 0 0 9 -8 5 -24 9 -35 9 l-20
0 20 -9z"/>
<path d="M7298 2283 c7 -3 16 -2 19 1 4 3 -2 6 -13 5 -11 0 -14 -3 -6 -6z"/>
<path d="M5830 2251 c0 -6 7 -11 15 -11 9 0 18 -7 21 -15 4 -9 19 -15 38 -15
17 0 41 -6 52 -14 11 -8 44 -17 74 -20 129 -13 379 -55 407 -68 12 -6 37 -8
57 -4 21 4 43 2 54 -5 11 -7 27 -9 37 -5 16 6 17 9 4 19 -21 19 -74 34 -169
47 -47 6 -114 15 -150 20 -36 5 -92 12 -125 15 -60 7 -267 49 -298 61 -10 3
-17 1 -17 -5z"/>
<path d="M10755 2249 c-5 -7 -1 -18 11 -26 24 -17 33 2 11 24 -11 12 -16 12
-22 2z"/>
<path d="M7064 1675 c11 -8 29 -15 40 -15 16 1 12 5 -13 15 -42 19 -52 19 -27
0z"/>
<path d="M7202 1638 c5 -15 48 -24 48 -10 0 10 -23 22 -42 22 -5 0 -8 -6 -6
-12z"/>
<path d="M7260 1626 c0 -9 7 -16 16 -16 17 0 14 22 -4 28 -7 2 -12 -3 -12 -12z"/>
<path d="M7319 1619 c-10 -6 -9 -9 6 -14 11 -4 30 -11 43 -16 33 -13 52 -11
52 6 0 8 -3 15 -7 15 -5 0 -24 4 -44 9 -21 5 -43 5 -50 0z"/>
<path d="M7491 1583 c6 -7 38 -11 77 -11 37 0 92 -5 122 -12 81 -17 190 -24
190 -12 0 18 -30 34 -54 28 -13 -3 -46 -1 -72 5 -71 15 -275 17 -263 2z"/>
<path d="M7911 1541 l-24 -6 29 -14 c30 -14 313 -45 323 -36 12 13 -27 25 -79
25 -49 0 -170 19 -210 33 -8 3 -26 2 -39 -2z"/>
<path d="M8320 1481 c0 -13 30 -22 52 -16 10 4 16 11 13 16 -8 12 -65 12 -65
0z"/>
<path d="M8424 1478 c-3 -4 13 -8 35 -8 23 0 41 2 41 4 0 8 -71 12 -76 4z"/>
<path d="M8663 1473 c15 -2 37 -2 50 0 12 2 0 4 -28 4 -27 0 -38 -2 -22 -4z"/>
<path d="M8956 1465 c21 -16 44 -19 44 -6 0 5 -10 11 -22 15 -37 9 -43 7 -22
-9z"/>
<path d="M9415 1470 c3 -5 10 -10 16 -10 5 0 9 5 9 10 0 6 -7 10 -16 10 -8 0
-12 -4 -9 -10z"/>
<path d="M9485 1470 c-3 -5 -1 -10 4 -10 6 0 11 5 11 10 0 6 -2 10 -4 10 -3 0
-8 -4 -11 -10z"/>
</g>
</svg>
